<?xml version="1.0" encoding="UTF-8"?>
<svg width="908px" height="449px" viewBox="0 0 908 449" version="1.1" xmlns="http://www.w3.org/2000/svg" xmlns:xlink="http://www.w3.org/1999/xlink">
    <!-- Generator: Sketch 52.2 (67145) - http://www.bohemiancoding.com/sketch -->
    <title>computer</title>
    <desc>Created with Sketch.</desc>
    <g id="Page-1" stroke="none" stroke-width="1" fill="none" fill-rule="evenodd">
        <g id="computer" transform="translate(454.000000, 229.000000) scale(-1, 1) translate(-454.000000, -229.000000) ">
            <path d="M907.99,0.854 L302.661,0.854 L246.739,183.087 C244.428,190.622 248.658,198.62 256.198,200.938 L862.98,387.362 C866.17,388.344 869.46,388.138 872.35,387.011 C873.92,385.432 875.13,383.468 875.83,381.199 L907.99,276.4 L907.99,0.854" id="Fill-3" fill="#E4E5E6"></path>
            <path d="M907.99,30.143 L812.24,0.854 L328.382,0.854 L307.498,69.119 C305.282,76.367 309.398,84.111 316.646,86.328 L868.38,255.094 C875.63,257.311 883.37,253.195 885.59,245.947 L907.99,172.713 L907.99,30.143" id="Fill-4" fill="#CFD0D1"></path>
            <path d="M907.99,56.293 L903.67,54.965 C901.85,54.405 900.83,52.472 901.38,50.648 L904.66,39.997 C904.77,39.639 904.93,39.32 905.14,39.035 C903.68,39.058 902.34,39.983 901.88,41.459 L898.61,52.117 C898.05,53.946 899.07,55.881 900.92,56.45 L907.99,58.622 L907.99,56.293" id="Fill-5" fill="#323133"></path>
            <path d="M856.01,36.704 C855.45,38.53 856.48,40.466 858.29,41.023 L886.13,49.573 C886.49,49.684 886.85,49.719 887.2,49.709 C886.36,50.91 884.83,51.505 883.36,51.053 L855.53,42.501 C853.7,41.941 852.68,40.009 853.25,38.181 L856.52,27.525 C856.97,26.044 858.31,25.116 859.76,25.092 C859.57,25.382 859.39,25.698 859.28,26.054 L856.01,36.704" id="Fill-6" fill="#323133"></path>
            <path d="M816.9,24.688 C816.34,26.514 817.36,28.446 819.19,29.008 L847.01,37.558 C847.37,37.669 847.73,37.702 848.09,37.695 C847.24,38.892 845.71,39.487 844.25,39.039 L816.42,30.487 C814.6,29.929 813.58,27.996 814.14,26.167 L817.42,15.511 C817.87,14.029 819.21,13.1 820.66,13.079 C820.46,13.364 820.29,13.682 820.17,14.038 L816.9,24.688" id="Fill-7" fill="#323133"></path>
            <path d="M777.79,12.673 C777.23,14.498 778.25,16.429 780.08,16.994 L807.9,25.539 C808.26,25.65 808.62,25.681 808.96,25.673 C808.14,26.877 806.61,27.472 805.13,27.019 L777.31,18.468 C775.48,17.91 774.46,15.977 775.01,14.148 L778.29,3.491 C778.75,2.011 780.08,1.081 781.54,1.058 C781.33,1.345 781.17,1.667 781.06,2.021 L777.79,12.673" id="Fill-8" fill="#323133"></path>
            <path d="M740.96,4.972 C739.19,4.43 738.21,2.617 738.65,0.854 L736.3,0.854 L735.91,2.13 C735.35,3.96 736.37,5.89 738.2,6.456 L766.02,15.003 C767.5,15.456 769.02,14.858 769.86,13.659 C769.5,13.665 769.14,13.632 768.79,13.524 L740.96,4.972" id="Fill-9" fill="#323133"></path>
            <path d="M727.54,0.854 L719.97,0.854 L726.92,2.986 C728.38,3.437 729.9,2.842 730.75,1.646 C730.38,1.646 730.02,1.616 729.68,1.511 L727.54,0.854" id="Fill-10" fill="#323133"></path>
            <path d="M415.766,81.4 C415.566,81.688 415.385,82.007 415.277,82.36 L412.002,93.016 C411.439,94.845 412.459,96.775 414.292,97.34 L442.127,105.892 C442.487,106 442.837,106.031 443.188,106.021 C442.366,107.217 440.824,107.8 439.365,107.352 L411.539,98.803 C409.709,98.24 408.686,96.31 409.249,94.478 L412.521,83.826 C412.971,82.361 414.312,81.422 415.766,81.4" id="Fill-11" fill="#323133"></path>
            <path d="M323.007,52.902 C322.803,53.188 322.627,53.509 322.521,53.86 L319.246,64.516 C318.682,66.345 319.707,68.279 321.535,68.84 L349.357,77.388 C349.712,77.499 350.088,77.535 350.438,77.523 C349.592,78.714 348.065,79.304 346.596,78.85 L318.77,70.303 C316.945,69.74 315.917,67.808 316.484,65.978 L319.755,55.327 C320.207,53.861 321.542,52.92 323.007,52.902" id="Fill-12" fill="#323133"></path>
            <path d="M372.952,53.492 C372.758,53.787 372.581,54.098 372.468,54.462 L369.195,65.114 C368.635,66.936 369.66,68.867 371.493,69.431 L399.316,77.978 C399.667,78.087 400.033,78.122 400.383,78.118 C399.551,79.322 398.011,79.893 396.559,79.446 L368.718,70.893 C366.906,70.336 365.879,68.407 366.444,66.578 L369.711,55.926 C370.167,54.46 371.504,53.521 372.952,53.492" id="Fill-13" fill="#323133"></path>
            <path d="M366.164,75.603 C365.964,75.9 365.787,76.212 365.675,76.576 L362.403,87.228 C361.844,89.05 362.87,90.981 364.699,91.544 L392.521,100.093 C392.875,100.201 393.242,100.235 393.592,100.232 C392.757,101.426 391.217,102.01 389.758,101.562 L361.923,93.01 C360.111,92.454 359.085,90.519 359.646,88.688 L362.918,78.033 C363.375,76.566 364.711,75.635 366.164,75.603" id="Fill-14" fill="#323133"></path>
            <path d="M907.99,94.859 L892.84,90.204 C891.02,89.642 890,87.715 890.56,85.893 L898,61.668 C898.11,61.308 898.27,60.994 898.48,60.702 C897.03,60.729 895.68,61.666 895.22,63.128 L887.79,87.349 C887.22,89.177 888.25,91.112 890.09,91.677 L907.99,97.176 L907.99,94.859" id="Fill-15" fill="#323133"></path>
            <path d="M845.18,71.95 C844.61,73.774 845.65,75.707 847.47,76.265 L875.3,84.814 C875.66,84.926 876.02,84.967 876.36,84.953 C875.53,86.15 874.01,86.735 872.54,86.283 L844.7,77.732 C842.88,77.173 841.86,75.241 842.42,73.412 L849.86,49.191 C850.31,47.726 851.65,46.787 853.11,46.761 C852.91,47.055 852.73,47.366 852.62,47.726 L845.18,71.95" id="Fill-16" fill="#323133"></path>
            <path d="M806.07,59.935 C805.51,61.76 806.53,63.687 808.36,64.25 L836.18,72.796 C836.54,72.907 836.9,72.95 837.26,72.941 C836.42,74.13 834.89,74.717 833.43,74.269 L805.6,65.718 C803.78,65.16 802.75,63.224 803.32,61.396 L810.76,37.179 C811.21,35.713 812.55,34.773 814,34.747 C813.8,35.039 813.62,35.35 813.51,35.71 L806.07,59.935" id="Fill-17" fill="#323133"></path>
            <path d="M766.97,47.919 C766.4,49.745 767.42,51.671 769.25,52.232 L797.07,60.78 C797.43,60.892 797.79,60.931 798.13,60.923 C797.3,62.115 795.78,62.702 794.3,62.25 L766.48,53.699 C764.66,53.143 763.63,51.205 764.19,49.374 L771.63,25.157 C772.09,23.692 773.43,22.753 774.88,22.727 C774.68,23.02 774.51,23.333 774.4,23.692 L766.97,47.919" id="Fill-18" fill="#323133"></path>
            <path d="M727.84,35.899 C727.28,37.724 728.3,39.651 730.13,40.212 L757.96,48.765 C758.31,48.87 758.67,48.913 759.03,48.904 C758.19,50.096 756.67,50.685 755.2,50.233 L727.37,41.683 C725.54,41.122 724.52,39.189 725.08,37.359 L732.53,13.143 C732.98,11.679 734.32,10.738 735.77,10.712 C735.57,11.004 735.39,11.314 735.28,11.674 L727.84,35.899" id="Fill-19" fill="#323133"></path>
            <path d="M691.02,28.197 C689.19,27.637 688.17,25.707 688.73,23.883 L695.8,0.854 L693.54,0.854 C693.5,0.948 693.44,1.025 693.41,1.125 L685.97,25.344 C685.41,27.173 686.44,29.108 688.25,29.664 L716.09,38.218 C717.55,38.664 719.08,38.079 719.92,36.892 C719.55,36.893 719.2,36.854 718.86,36.75 L691.02,28.197" id="Fill-20" fill="#323133"></path>
            <path d="M651.89,16.177 C650.08,15.616 649.05,13.686 649.61,11.862 L652.99,0.854 L650.69,0.854 L646.86,13.324 C646.3,15.155 647.31,17.085 649.13,17.644 L676.97,26.198 C678.44,26.65 679.96,26.061 680.8,24.871 C680.46,24.883 680.09,24.839 679.73,24.73 L651.89,16.177" id="Fill-21" fill="#323133"></path>
            <path d="M612.79,4.164 C611.3,3.706 610.4,2.333 610.4,0.854 L607.86,0.854 L607.73,1.305 C607.17,3.134 608.2,5.069 610.02,5.627 L637.86,14.183 C639.32,14.629 640.86,14.05 641.69,12.852 C641.33,12.863 640.98,12.824 640.62,12.713 L612.79,4.164" id="Fill-22" fill="#323133"></path>
            <path d="M818.3,104.57 L825.74,80.351 C826.19,78.872 827.53,77.942 829,77.919 C828.78,78.207 828.6,78.526 828.5,78.875 L821.05,103.103 C820.49,104.925 821.51,106.854 823.34,107.417 L851.18,115.969 C851.53,116.077 851.9,116.11 852.25,116.109 C851.41,117.299 849.87,117.881 848.42,117.433 L820.59,108.884 C818.76,108.323 817.74,106.389 818.3,104.57" id="Fill-23" fill="#323133"></path>
            <path d="M779.18,92.549 L786.61,68.329 C787.07,66.852 788.42,65.927 789.87,65.897 C789.66,66.186 789.5,66.513 789.39,66.859 L781.95,91.089 C781.38,92.91 782.41,94.839 784.23,95.402 L812.06,103.952 C812.41,104.06 812.77,104.092 813.13,104.092 C812.29,105.281 810.77,105.866 809.29,105.413 L781.49,96.869 C779.63,96.301 778.61,94.371 779.18,92.549" id="Fill-24" fill="#323133"></path>
            <path d="M740.07,80.534 L747.51,56.315 C747.96,54.835 749.3,53.906 750.76,53.882 C750.55,54.172 750.38,54.493 750.27,54.84 L742.82,79.066 C742.26,80.886 743.3,82.826 745.12,83.384 L772.95,91.936 C773.31,92.046 773.66,92.075 774.02,92.075 C773.18,93.262 771.66,93.852 770.19,93.397 L742.36,84.85 C740.53,84.288 739.51,82.356 740.07,80.534" id="Fill-25" fill="#323133"></path>
            <path d="M703.71,67.051 C703.15,68.871 704.2,70.81 706.01,71.368 L733.83,79.915 C734.18,80.023 734.55,80.058 734.91,80.06 C734.06,81.247 732.54,81.832 731.08,81.381 L703.25,72.833 C701.42,72.273 700.39,70.335 700.94,68.513 L708.38,44.293 C708.84,42.814 710.18,41.888 711.64,41.863 C711.45,42.158 711.27,42.477 711.15,42.823 L703.71,67.051" id="Fill-26" fill="#323133"></path>
            <path d="M664.59,55.031 C664.03,56.853 665.07,58.79 666.89,59.348 L694.72,67.899 C695.07,68.007 695.43,68.042 695.79,68.041 C694.96,69.228 693.42,69.814 691.95,69.361 L664.12,60.812 C662.31,60.256 661.28,58.32 661.83,56.498 L669.28,32.28 C669.73,30.803 671.08,29.872 672.53,29.848 C672.32,30.138 672.14,30.458 672.04,30.805 L664.59,55.031" id="Fill-27" fill="#323133"></path>
            <path d="M625.49,43.018 C624.94,44.84 625.96,46.776 627.78,47.333 L655.61,55.884 C655.97,55.995 656.33,56.026 656.68,56.024 C655.85,57.213 654.31,57.796 652.85,57.347 L625.02,48.8 C623.19,48.234 622.17,46.305 622.73,44.482 L630.17,20.265 C630.63,18.789 631.96,17.854 633.43,17.83 C633.21,18.124 633.05,18.444 632.94,18.792 L625.49,43.018" id="Fill-28" fill="#323133"></path>
            <path d="M586.38,31.002 C585.82,32.822 586.83,34.75 588.67,35.315 L616.49,43.865 C616.86,43.979 617.21,44.006 617.56,44.004 C616.74,45.199 615.2,45.783 613.72,45.326 L585.91,36.782 C584.07,36.215 583.06,34.287 583.62,32.467 L591.06,8.248 C591.51,6.769 592.84,5.838 594.32,5.816 C594.1,6.104 593.93,6.424 593.82,6.774 L586.38,31.002" id="Fill-29" fill="#323133"></path>
            <path d="M549.55,23.298 C547.73,22.739 546.7,20.804 547.27,18.986 L552.84,0.854 L550.52,0.854 L544.49,20.447 C543.94,22.269 544.96,24.198 546.79,24.762 L574.61,33.31 C576.09,33.764 577.61,33.178 578.45,31.991 C578.1,31.989 577.74,31.957 577.38,31.85 L549.55,23.298" id="Fill-30" fill="#323133"></path>
            <path d="M510.43,11.278 C508.62,10.721 507.587,8.785 508.15,6.967 L510.02,0.854 L507.697,0.854 L505.368,8.425 C504.81,10.248 505.848,12.184 507.678,12.746 L535.5,21.294 C536.98,21.749 538.51,21.162 539.34,19.973 C538.98,19.973 538.63,19.943 538.27,19.833 L510.43,11.278" id="Fill-31" fill="#323133"></path>
            <path d="M476.507,0.854 L468.97,0.854 L496.39,9.279 C497.862,9.731 499.38,9.143 500.23,7.958 C499.866,7.954 499.517,7.925 499.151,7.813 L476.507,0.854" id="Fill-32" fill="#323133"></path>
            <path d="M907.99,133.424 L862.28,119.382 C860.45,118.819 859.43,116.888 859.99,115.067 L867.44,90.837 C867.54,90.49 867.72,90.169 867.92,89.876 C866.46,89.9 865.12,90.831 864.66,92.31 L857.22,116.529 C856.66,118.351 857.69,120.283 859.51,120.842 L907.08,135.456 C907.38,135.55 907.69,135.573 907.99,135.583 L907.99,133.424" id="Fill-33" fill="#323133"></path>
            <path d="M801.63,135.691 C801.08,137.523 802.09,139.456 803.92,140.017 L831.76,148.571 C832.11,148.68 832.48,148.712 832.82,148.706 C831.99,149.902 830.46,150.483 828.99,150.031 L801.16,141.48 C799.34,140.921 798.3,138.98 798.86,137.159 L806.31,112.927 C806.76,111.469 808.11,110.54 809.57,110.515 C809.37,110.801 809.19,111.118 809.08,111.479 L801.63,135.691" id="Fill-34" fill="#323133"></path>
            <path d="M762.53,123.676 C761.96,125.506 762.99,127.442 764.82,128.001 L792.64,136.549 C792.99,136.659 793.35,136.689 793.72,136.689 C792.87,137.883 791.35,138.465 789.88,138.017 L762.06,129.467 C760.23,128.903 759.2,126.967 759.76,125.145 L767.2,100.912 C767.65,99.453 768.99,98.524 770.46,98.498 C770.26,98.78 770.08,99.106 769.97,99.464 L762.53,123.676" id="Fill-35" fill="#323133"></path>
            <path d="M723.41,111.657 C722.84,113.486 723.87,115.422 725.69,115.981 L753.53,124.535 C753.89,124.644 754.25,124.676 754.6,124.668 C753.76,125.866 752.24,126.449 750.77,125.997 L722.93,117.448 C721.12,116.888 720.09,114.949 720.65,113.129 L728.09,88.896 C728.54,87.435 729.88,86.505 731.33,86.479 C731.14,86.762 730.95,87.083 730.84,87.443 L723.41,111.657" id="Fill-36" fill="#323133"></path>
            <path d="M681.53,101.11 L688.97,76.876 C689.42,75.416 690.77,74.49 692.23,74.464 C692.03,74.749 691.84,75.067 691.74,75.428 L684.3,99.642 C683.73,101.469 684.77,103.407 686.58,103.967 L714.41,112.517 C714.76,112.625 715.13,112.658 715.49,112.653 C714.65,113.852 713.11,114.428 711.65,113.981 L683.82,105.431 C682,104.868 680.97,102.932 681.53,101.11" id="Fill-37" fill="#323133"></path>
            <path d="M642.42,89.094 L649.87,64.863 C650.32,63.402 651.65,62.47 653.11,62.445 C652.91,62.729 652.74,63.053 652.63,63.413 L645.19,87.626 C644.63,89.457 645.64,91.388 647.48,91.951 L675.3,100.5 C675.66,100.609 676.01,100.64 676.37,100.635 C675.54,101.834 674.01,102.414 672.53,101.961 L644.71,93.416 C642.89,92.853 641.87,90.917 642.42,89.094" id="Fill-38" fill="#323133"></path>
            <path d="M603.3,77.075 L610.76,52.847 C611.2,51.386 612.54,50.452 614,50.429 C613.8,50.712 613.63,51.035 613.52,51.396 L606.08,75.609 C605.52,77.441 606.54,79.371 608.36,79.934 L636.19,88.479 C636.54,88.593 636.9,88.622 637.25,88.617 C636.43,89.817 634.9,90.398 633.42,89.944 L605.6,81.395 C603.77,80.835 602.75,78.898 603.3,77.075" id="Fill-39" fill="#323133"></path>
            <path d="M564.19,65.059 L571.64,40.827 C572.08,39.369 573.43,38.437 574.89,38.41 C574.69,38.695 574.51,39.018 574.39,39.375 L566.96,63.589 C566.39,65.42 567.42,67.356 569.24,67.917 L597.08,76.467 C597.43,76.576 597.79,76.606 598.14,76.6 C597.3,77.799 595.77,78.378 594.31,77.93 L566.48,69.378 C564.65,68.817 563.63,66.88 564.19,65.059" id="Fill-40" fill="#323133"></path>
            <path d="M527.85,51.575 C527.28,53.406 528.32,55.341 530.14,55.9 L557.97,64.449 C558.31,64.556 558.68,64.589 559.04,64.586 C558.19,65.782 556.67,66.364 555.21,65.916 L527.37,57.362 C525.54,56.799 524.52,54.864 525.08,53.042 L532.52,28.81 C532.97,27.349 534.31,26.417 535.77,26.395 C535.56,26.676 535.4,27.003 535.29,27.361 L527.85,51.575" id="Fill-41" fill="#323133"></path>
            <path d="M488.724,39.554 C488.162,41.383 489.187,43.321 491.012,43.878 L518.84,52.431 C519.21,52.544 519.56,52.571 519.91,52.565 C519.08,53.764 517.56,54.347 516.08,53.894 L488.255,45.343 C486.431,44.784 485.408,42.847 485.968,41.026 L493.415,16.794 C493.861,15.333 495.189,14.399 496.653,14.375 C496.443,14.657 496.276,14.981 496.163,15.34 L488.724,39.554" id="Fill-42" fill="#323133"></path>
            <path d="M449.631,27.542 C449.065,29.372 450.083,31.304 451.905,31.864 L479.736,40.416 C480.086,40.523 480.452,40.555 480.811,40.55 C479.968,41.748 478.435,42.325 476.978,41.878 L449.134,33.323 C447.322,32.769 446.285,30.828 446.84,29.005 L454.293,4.774 C454.74,3.312 456.086,2.385 457.55,2.36 C457.351,2.647 457.181,2.97 457.07,3.328 L449.631,27.542" id="Fill-43" fill="#323133"></path>
            <path d="M412.796,19.846 C410.968,19.289 409.951,17.355 410.511,15.525 L415.02,0.854 L412.696,0.854 L407.738,16.989 C407.179,18.812 408.212,20.752 410.026,21.309 L437.869,29.864 C439.329,30.311 440.851,29.727 441.691,28.533 C441.335,28.534 440.975,28.505 440.613,28.395 L412.796,19.846" id="Fill-44" fill="#323133"></path>
            <path d="M350.973,0.854 L343.449,0.854 L399.007,17.923 C400.479,18.376 402.008,17.796 402.846,16.597 C402.49,16.603 402.137,16.573 401.776,16.462 L350.973,0.854" id="Fill-45" fill="#323133"></path>
            <path d="M839.91,147.453 C839.36,149.284 840.38,151.221 842.2,151.778 L899.02,169.233 C899.37,169.344 899.74,169.377 900.09,169.368 C899.25,170.57 897.72,171.148 896.24,170.692 L839.43,153.238 C837.62,152.683 836.59,150.743 837.15,148.922 L844.59,124.689 C845.04,123.231 846.39,122.304 847.84,122.274 C847.65,122.562 847.47,122.881 847.36,123.237 L839.91,147.453" id="Fill-46" fill="#323133"></path>
            <path d="M733.03,155.5 L740.47,131.276 C740.93,129.807 742.27,128.867 743.72,128.847 C743.52,129.139 743.34,129.451 743.23,129.804 L735.79,154.025 C735.23,155.858 736.27,157.789 738.08,158.349 L765.91,166.898 C766.27,167.01 766.63,167.048 766.99,167.028 C766.15,168.228 764.63,168.816 763.14,168.362 L735.32,159.814 C733.49,159.254 732.47,157.319 733.03,155.5" id="Fill-47" fill="#323133"></path>
            <path d="M696.68,142.013 C696.12,143.842 697.15,145.773 698.97,146.332 L726.8,154.883 C727.16,154.992 727.52,155.028 727.87,155.01 C727.04,156.208 725.5,156.795 724.04,156.348 L696.2,147.794 C694.38,147.235 693.35,145.299 693.91,143.48 L701.35,119.255 C701.8,117.786 703.16,116.852 704.61,116.828 C704.41,117.125 704.23,117.436 704.12,117.789 L696.68,142.013" id="Fill-48" fill="#323133"></path>
            <path d="M657.57,129.998 C657.01,131.825 658.03,133.755 659.85,134.315 L687.68,142.863 C688.05,142.975 688.41,143.013 688.76,142.991 C687.92,144.19 686.4,144.781 684.91,144.326 L657.09,135.779 C655.26,135.217 654.25,133.284 654.8,131.465 L662.24,107.239 C662.69,105.77 664.05,104.837 665.5,104.813 C665.31,105.109 665.13,105.423 665.02,105.773 L657.57,129.998" id="Fill-49" fill="#323133"></path>
            <path d="M855.18,201.649 C854.97,201.942 854.8,202.258 854.69,202.623 L847.25,226.839 C846.69,228.66 847.71,230.594 849.53,231.154 L877.37,239.704 C877.72,239.813 878.09,239.849 878.44,239.842 C877.6,241.039 876.07,241.625 874.59,241.17 L846.79,232.626 C844.95,232.063 843.92,230.123 844.48,228.302 L851.92,204.082 C852.37,202.613 853.72,201.675 855.18,201.649" id="Fill-50" fill="#323133"></path>
            <path d="M816.07,189.633 C815.86,189.926 815.68,190.238 815.57,190.601 L808.13,214.82 C807.57,216.641 808.6,218.576 810.43,219.137 L838.26,227.687 C838.61,227.796 838.97,227.83 839.33,227.827 C838.49,229.019 836.96,229.609 835.48,229.154 L807.66,220.606 C805.83,220.042 804.82,218.109 805.38,216.288 L812.82,192.063 C813.27,190.599 814.6,189.659 816.07,189.633" id="Fill-51" fill="#323133"></path>
            <path d="M769.02,202.803 C768.46,204.625 769.48,206.557 771.31,207.115 L799.14,215.668 C799.49,215.776 799.86,215.815 800.2,215.811 C799.37,217.002 797.84,217.589 796.36,217.136 L768.55,208.593 C766.72,208.03 765.69,206.088 766.25,204.267 L773.69,180.042 C774.14,178.577 775.49,177.639 776.95,177.612 C776.75,177.911 776.58,178.222 776.46,178.585 L769.02,202.803" id="Fill-52" fill="#323133"></path>
            <path d="M737.84,165.598 C737.63,165.89 737.46,166.203 737.35,166.57 L729.91,190.788 C729.34,192.608 730.37,194.54 732.2,195.1 L760.03,203.651 C760.38,203.761 760.74,203.799 761.1,203.793 C760.25,204.984 758.73,205.572 757.26,205.119 L729.43,196.571 C727.6,196.008 726.58,194.072 727.14,192.252 L734.58,168.027 C735.04,166.563 736.38,165.624 737.84,165.598" id="Fill-53" fill="#323133"></path>
            <path d="M497.692,91.817 C497.493,92.11 497.315,92.42 497.202,92.786 L489.763,117.005 C489.203,118.826 490.221,120.754 492.072,121.325 L519.88,129.868 C520.25,129.981 520.6,130.017 520.95,130.009 C520.12,131.206 518.59,131.79 517.12,131.339 L489.297,122.791 C487.453,122.224 486.441,120.294 486.999,118.472 L494.441,94.248 C494.894,92.78 496.241,91.844 497.692,91.817" id="Fill-54" fill="#323133"></path>
            <path d="M458.577,79.8 C458.378,80.094 458.206,80.407 458.094,80.771 L450.654,104.99 C450.096,106.812 451.117,108.743 452.944,109.304 L480.768,117.852 C481.131,117.963 481.48,117.997 481.844,117.996 C481.009,119.19 479.473,119.773 478,119.32 L450.178,110.773 C448.354,110.212 447.332,108.275 447.889,106.457 L455.331,82.232 C455.784,80.766 457.125,79.826 458.577,79.8" id="Fill-55" fill="#323133"></path>
            <path d="M537.33,103.994 C537.12,104.286 536.95,104.6 536.84,104.965 L529.4,129.184 C528.84,131.003 529.87,132.94 531.7,133.5 L720.64,191.551 C721.01,191.666 721.36,191.699 721.71,191.693 C720.89,192.89 719.36,193.475 717.89,193.022 L528.93,134.966 C527.11,134.412 526.08,132.468 526.63,130.647 L534.08,106.426 C534.53,104.96 535.87,104.021 537.33,103.994" id="Fill-56" fill="#323133"></path>
            <path d="M618.46,117.978 C617.89,119.81 618.92,121.737 620.74,122.294 L648.57,130.847 C648.93,130.957 649.28,130.994 649.64,130.975 C648.81,132.172 647.29,132.766 645.81,132.312 L617.99,123.764 C616.16,123.201 615.13,121.269 615.69,119.449 L623.13,95.225 C623.58,93.756 624.93,92.818 626.39,92.795 C626.18,93.089 626.01,93.407 625.9,93.755 L618.46,117.978" id="Fill-57" fill="#323133"></path>
            <path d="M579.34,105.964 C578.78,107.791 579.81,109.72 581.63,110.279 L609.47,118.834 C609.82,118.944 610.17,118.978 610.54,118.959 C609.71,120.16 608.18,120.75 606.7,120.297 L578.88,111.749 C577.05,111.187 576.02,109.25 576.58,107.431 L584.02,83.208 C584.47,81.74 585.82,80.803 587.28,80.779 C587.07,81.074 586.89,81.388 586.79,81.74 L579.34,105.964" id="Fill-58" fill="#323133"></path>
            <path d="M548.16,68.761 C547.95,69.051 547.78,69.369 547.67,69.721 L540.22,93.942 C539.67,95.774 540.7,97.706 542.52,98.266 L570.35,106.813 C570.7,106.922 571.06,106.96 571.42,106.94 C570.58,108.139 569.05,108.73 567.6,108.283 L539.76,99.728 C537.94,99.17 536.9,97.232 537.46,95.413 L544.9,71.19 C545.36,69.719 546.7,68.781 548.16,68.761" id="Fill-59" fill="#323133"></path>
            <path d="M501.121,81.928 C500.556,83.758 501.578,85.687 503.398,86.247 L531.24,94.797 C531.6,94.907 531.95,94.942 532.31,94.926 C531.47,96.123 529.94,96.714 528.48,96.264 L500.647,87.712 C498.813,87.149 497.8,85.22 498.352,83.396 L505.794,59.174 C506.252,57.705 507.592,56.768 509.05,56.745 C508.84,57.036 508.67,57.355 508.56,57.705 L501.121,81.928" id="Fill-60" fill="#323133"></path>
            <path d="M462.004,69.91 C461.442,71.739 462.47,73.669 464.295,74.23 L492.126,82.781 C492.47,82.886 492.837,82.924 493.188,82.905 C492.349,84.103 490.823,84.692 489.369,84.246 L461.522,75.692 C459.706,75.135 458.675,73.199 459.229,71.377 L466.675,47.152 C467.124,45.684 468.472,44.749 469.926,44.723 C469.734,45.018 469.555,45.336 469.451,45.687 L462.004,69.91" id="Fill-61" fill="#323133"></path>
            <path d="M422.893,57.895 C422.327,59.725 423.355,61.652 425.188,62.214 L453.012,70.765 C453.366,70.871 453.732,70.91 454.083,70.89 C453.243,72.087 451.708,72.677 450.25,72.229 L422.414,63.676 C420.604,63.119 419.565,61.183 420.125,59.361 L427.57,35.14 C428.018,33.67 429.368,32.733 430.813,32.709 C430.617,33.005 430.444,33.32 430.337,33.67 L422.893,57.895" id="Fill-62" fill="#323133"></path>
            <path d="M337.975,4.183 C337.768,4.477 337.595,4.791 337.488,5.145 L330.043,29.366 C329.482,31.197 330.508,33.126 332.333,33.684 L413.418,58.6 C413.765,58.705 414.129,58.744 414.489,58.725 C413.655,59.924 412.113,60.511 410.656,60.064 L329.568,35.151 C327.741,34.589 326.722,32.657 327.28,30.836 L334.721,6.614 C335.173,5.143 336.513,4.205 337.975,4.183" id="Fill-63" fill="#323133"></path>
            <path d="M811.43,179.585 L818.88,155.367 C819.33,153.895 820.68,152.959 822.13,152.935 C821.93,153.23 821.75,153.545 821.64,153.895 L814.2,178.121 C813.64,179.95 814.66,181.875 816.5,182.441 L888.19,204.469 C888.55,204.578 888.91,204.614 889.26,204.594 C888.43,205.796 886.9,206.384 885.42,205.929 L813.72,183.899 C811.89,183.34 810.88,181.409 811.43,179.585" id="Fill-64" fill="#323133"></path>
            <path d="M907.99,39.717 L906.22,39.173 C905.85,39.062 905.49,39.029 905.14,39.035 C904.93,39.32 904.77,39.639 904.66,39.997 L901.38,50.648 C900.83,52.472 901.85,54.405 903.67,54.965 L907.99,56.293 L907.99,39.717" id="Fill-65" fill="#414042"></path>
            <path d="M888.67,33.78 C890.5,34.343 891.52,36.273 890.95,38.104 L887.68,48.761 C887.57,49.112 887.4,49.43 887.2,49.709 C886.85,49.719 886.49,49.684 886.13,49.573 L858.29,41.023 C856.48,40.466 855.45,38.53 856.01,36.704 L859.28,26.054 C859.39,25.698 859.57,25.382 859.76,25.092 C860.13,25.091 860.48,25.12 860.83,25.229 L888.67,33.78" id="Fill-66" fill="#414042"></path>
            <path d="M849.56,21.767 C851.37,22.324 852.4,24.253 851.83,26.085 L848.56,36.741 C848.45,37.092 848.29,37.412 848.09,37.695 C847.73,37.702 847.37,37.669 847.01,37.558 L819.19,29.008 C817.36,28.446 816.34,26.514 816.9,24.688 L820.17,14.038 C820.29,13.682 820.46,13.364 820.66,13.079 C821,13.073 821.37,13.105 821.73,13.214 L849.56,21.767" id="Fill-67" fill="#414042"></path>
            <path d="M810.43,9.746 C812.26,10.306 813.28,12.237 812.72,14.067 L809.45,24.725 C809.34,25.077 809.18,25.396 808.96,25.673 C808.62,25.681 808.26,25.65 807.9,25.539 L780.08,16.994 C778.25,16.429 777.23,14.498 777.79,12.673 L781.06,2.021 C781.17,1.667 781.33,1.345 781.54,1.058 C781.89,1.056 782.25,1.088 782.61,1.196 L810.43,9.746" id="Fill-68" fill="#414042"></path>
            <path d="M738.65,0.854 C738.21,2.617 739.19,4.43 740.96,4.972 L768.79,13.524 C769.14,13.632 769.5,13.665 769.86,13.659 C770.06,13.378 770.23,13.062 770.34,12.71 L773.62,2.055 C773.74,1.653 773.76,1.25 773.73,0.854 L738.65,0.854" id="Fill-69" fill="#414042"></path>
            <path d="M414.292,97.34 C412.459,96.775 411.439,94.845 412.002,93.016 L415.277,82.36 C415.385,82.007 415.566,81.688 415.766,81.4 C416.115,81.39 416.476,81.421 416.844,81.535 L444.668,90.083 C446.482,90.638 447.502,92.578 446.941,94.402 L443.671,105.051 C443.559,105.422 443.392,105.737 443.188,106.021 C442.837,106.031 442.487,106 442.127,105.892 L414.292,97.34" id="Fill-70" fill="#414042"></path>
            <path d="M321.535,68.84 C319.707,68.279 318.682,66.345 319.246,64.516 L322.521,53.86 C322.627,53.509 322.803,53.188 323.007,52.902 C323.356,52.891 323.715,52.922 324.075,53.034 L351.898,61.581 C353.731,62.142 354.76,64.083 354.197,65.908 L350.927,76.559 C350.809,76.927 350.633,77.236 350.438,77.523 C350.088,77.535 349.712,77.499 349.357,77.388 L321.535,68.84" id="Fill-71" fill="#414042"></path>
            <path d="M371.493,69.431 C369.66,68.867 368.635,66.936 369.195,65.114 L372.468,54.462 C372.581,54.098 372.758,53.787 372.952,53.492 C373.305,53.486 373.666,53.526 374.018,53.634 L401.86,62.187 C403.688,62.749 404.697,64.676 404.132,66.5 L400.861,77.151 C400.748,77.511 400.587,77.828 400.383,78.118 C400.033,78.122 399.667,78.087 399.316,77.978 L371.493,69.431" id="Fill-72" fill="#414042"></path>
            <path d="M364.699,91.544 C362.87,90.981 361.844,89.05 362.403,87.228 L365.675,76.576 C365.787,76.212 365.964,75.9 366.164,75.603 C366.512,75.595 366.869,75.632 367.225,75.742 L395.066,84.294 C396.896,84.857 397.898,86.784 397.344,88.609 L394.065,99.265 C393.958,99.625 393.791,99.94 393.592,100.232 C393.242,100.235 392.875,100.201 392.521,100.093 L364.699,91.544" id="Fill-73" fill="#414042"></path>
            <path d="M907.99,63.434 L899.56,60.846 C899.19,60.732 898.83,60.708 898.48,60.702 C898.27,60.994 898.11,61.308 898,61.668 L890.56,85.893 C890,87.715 891.02,89.642 892.84,90.204 L907.99,94.859 L907.99,63.434" id="Fill-74" fill="#414042"></path>
            <path d="M882.01,55.452 C883.84,56.016 884.86,57.94 884.29,59.769 L876.85,83.99 C876.74,84.353 876.57,84.663 876.36,84.953 C876.02,84.967 875.66,84.926 875.3,84.814 L847.47,76.265 C845.65,75.707 844.61,73.774 845.18,71.95 L852.62,47.726 C852.73,47.366 852.91,47.055 853.11,46.761 C853.48,46.77 853.82,46.793 854.17,46.899 L882.01,55.452" id="Fill-75" fill="#414042"></path>
            <path d="M842.9,43.438 C844.72,43.995 845.74,45.921 845.17,47.753 L837.73,71.972 C837.63,72.331 837.46,72.645 837.26,72.941 C836.9,72.95 836.54,72.907 836.18,72.796 L808.36,64.25 C806.53,63.687 805.51,61.76 806.07,59.935 L813.51,35.71 C813.62,35.35 813.8,35.039 814,34.747 C814.35,34.747 814.71,34.775 815.07,34.887 L842.9,43.438" id="Fill-76" fill="#414042"></path>
            <path d="M803.77,31.417 C805.61,31.977 806.63,33.904 806.07,35.737 L798.63,59.956 C798.51,60.314 798.35,60.629 798.13,60.923 C797.79,60.931 797.43,60.892 797.07,60.78 L769.25,52.232 C767.42,51.671 766.4,49.745 766.97,47.919 L774.4,23.692 C774.51,23.333 774.68,23.02 774.88,22.727 C775.24,22.734 775.59,22.758 775.95,22.868 L803.77,31.417" id="Fill-77" fill="#414042"></path>
            <path d="M764.67,19.402 C766.48,19.959 767.52,21.889 766.96,23.72 L759.52,47.94 C759.41,48.302 759.24,48.613 759.03,48.904 C758.67,48.913 758.31,48.87 757.96,48.765 L730.13,40.212 C728.3,39.651 727.28,37.724 727.84,35.899 L735.28,11.674 C735.39,11.314 735.57,11.004 735.77,10.712 C736.12,10.713 736.49,10.743 736.85,10.854 L764.67,19.402" id="Fill-78" fill="#414042"></path>
            <path d="M725.56,7.387 L704.31,0.854 L695.8,0.854 L688.73,23.883 C688.17,25.707 689.19,27.637 691.02,28.197 L718.86,36.75 C719.2,36.854 719.55,36.893 719.92,36.892 C720.12,36.595 720.3,36.286 720.41,35.923 L727.85,11.707 C728.41,9.875 727.37,7.943 725.56,7.387" id="Fill-79" fill="#414042"></path>
            <path d="M652.99,0.854 L649.61,11.862 C649.05,13.686 650.08,15.616 651.89,16.177 L679.73,24.73 C680.09,24.839 680.46,24.883 680.8,24.871 C681.01,24.578 681.19,24.268 681.29,23.906 L688.38,0.854 L652.99,0.854" id="Fill-80" fill="#414042"></path>
            <path d="M610.4,0.854 C610.4,2.333 611.3,3.706 612.79,4.164 L640.62,12.713 C640.98,12.824 641.33,12.863 641.69,12.852 C641.89,12.557 642.07,12.249 642.18,11.888 L645.57,0.854 L610.4,0.854" id="Fill-81" fill="#414042"></path>
            <path d="M823.34,107.417 C821.51,106.854 820.49,104.925 821.05,103.103 L828.5,78.875 C828.6,78.526 828.78,78.207 829,77.919 C829.35,77.911 829.7,77.95 830.06,78.061 L857.88,86.607 C859.71,87.169 860.74,89.096 860.17,90.93 L852.73,115.149 C852.62,115.507 852.45,115.817 852.25,116.109 C851.9,116.11 851.53,116.077 851.18,115.969 L823.34,107.417" id="Fill-82" fill="#414042"></path>
            <path d="M784.23,95.402 C782.41,94.839 781.38,92.91 781.95,91.089 L789.39,66.859 C789.5,66.513 789.66,66.186 789.87,65.897 C790.22,65.889 790.57,65.925 790.95,66.044 L818.76,74.585 C820.6,75.15 821.62,77.079 821.06,78.911 L813.61,103.131 C813.5,103.488 813.32,103.797 813.13,104.092 C812.77,104.092 812.41,104.06 812.06,103.952 L784.23,95.402" id="Fill-83" fill="#414042"></path>
            <path d="M745.12,83.384 C743.3,82.826 742.26,80.886 742.82,79.066 L750.27,54.84 C750.38,54.493 750.55,54.172 750.76,53.882 C751.12,53.874 751.48,53.915 751.83,54.023 L779.65,62.57 C781.49,63.135 782.5,65.061 781.94,66.893 L774.5,91.115 C774.39,91.47 774.22,91.784 774.02,92.075 C773.66,92.075 773.31,92.046 772.95,91.936 L745.12,83.384" id="Fill-84" fill="#414042"></path>
            <path d="M740.55,50.554 C742.37,51.115 743.4,53.047 742.83,54.877 L735.39,79.098 C735.28,79.455 735.09,79.761 734.91,80.06 C734.55,80.058 734.18,80.023 733.83,79.915 L706.01,71.368 C704.2,70.81 703.15,68.871 703.71,67.051 L711.15,42.823 C711.27,42.477 711.45,42.158 711.64,41.863 C712,41.856 712.35,41.893 712.72,42.006 L740.55,50.554" id="Fill-85" fill="#414042"></path>
            <path d="M701.42,38.536 C703.25,39.099 704.28,41.026 703.72,42.86 L696.28,67.08 C696.17,67.438 696,67.749 695.79,68.041 C695.43,68.042 695.07,68.007 694.72,67.899 L666.89,59.348 C665.07,58.79 664.03,56.853 664.59,55.031 L672.04,30.805 C672.14,30.458 672.32,30.138 672.53,29.848 C672.89,29.84 673.25,29.88 673.6,29.986 L701.42,38.536" id="Fill-86" fill="#414042"></path>
            <path d="M662.32,26.522 C664.14,27.083 665.16,29.008 664.6,30.844 L657.16,55.062 C657.05,55.42 656.88,55.731 656.68,56.024 C656.33,56.026 655.97,55.995 655.61,55.884 L627.78,47.333 C625.96,46.776 624.94,44.84 625.49,43.018 L632.94,18.792 C633.05,18.444 633.21,18.124 633.43,17.83 C633.78,17.822 634.14,17.864 634.49,17.974 L662.32,26.522" id="Fill-87" fill="#414042"></path>
            <path d="M623.19,14.498 C625.03,15.064 626.05,16.992 625.48,18.826 L618.04,43.044 C617.94,43.4 617.76,43.712 617.56,44.004 C617.21,44.006 616.86,43.979 616.49,43.865 L588.67,35.315 C586.83,34.75 585.82,32.822 586.38,31.002 L593.82,6.774 C593.93,6.424 594.1,6.104 594.32,5.816 C594.66,5.804 595.02,5.844 595.39,5.956 L623.19,14.498" id="Fill-88" fill="#414042"></path>
            <path d="M584.08,2.485 L578.77,0.854 L552.84,0.854 L547.27,18.986 C546.7,20.804 547.73,22.739 549.55,23.298 L577.38,31.85 C577.74,31.957 578.1,31.989 578.45,31.991 C578.65,31.697 578.83,31.388 578.94,31.031 L586.38,6.811 C586.94,4.978 585.91,3.048 584.08,2.485" id="Fill-89" fill="#414042"></path>
            <path d="M510.02,0.854 L508.15,6.967 C507.587,8.785 508.62,10.721 510.43,11.278 L538.27,19.833 C538.63,19.943 538.98,19.973 539.34,19.973 C539.55,19.682 539.72,19.37 539.83,19.014 L545.41,0.854 L510.02,0.854" id="Fill-90" fill="#414042"></path>
            <path d="M476.507,0.854 L499.151,7.813 C499.517,7.925 499.866,7.954 500.23,7.958 C500.427,7.663 500.6,7.351 500.707,6.995 L502.594,0.854 L476.507,0.854" id="Fill-91" fill="#414042"></path>
            <path d="M907.99,102 L868.98,90.019 C868.63,89.908 868.28,89.87 867.92,89.876 C867.72,90.169 867.54,90.49 867.44,90.837 L859.99,115.067 C859.43,116.888 860.45,118.819 862.28,119.382 L907.99,133.424 L907.99,102" id="Fill-92" fill="#414042"></path>
            <path d="M838.47,119.203 C840.29,119.763 841.31,121.689 840.75,123.509 L833.3,147.742 C833.2,148.097 833.03,148.412 832.82,148.706 C832.48,148.712 832.11,148.68 831.76,148.571 L803.92,140.017 C802.09,139.456 801.08,137.523 801.63,135.691 L809.08,111.479 C809.19,111.118 809.37,110.801 809.57,110.515 C809.92,110.505 810.28,110.54 810.64,110.653 L838.47,119.203" id="Fill-93" fill="#414042"></path>
            <path d="M799.35,107.185 C801.17,107.742 802.21,109.676 801.65,111.497 L794.21,135.729 C794.1,136.084 793.92,136.393 793.72,136.689 C793.35,136.689 792.99,136.659 792.64,136.549 L764.82,128.001 C762.99,127.442 761.96,125.506 762.53,123.676 L769.97,99.464 C770.08,99.106 770.26,98.78 770.46,98.498 C770.8,98.485 771.16,98.522 771.53,98.637 L799.35,107.185" id="Fill-94" fill="#414042"></path>
            <path d="M760.24,95.167 C762.06,95.726 763.09,97.655 762.53,99.475 L755.08,123.707 C754.97,124.062 754.81,124.377 754.6,124.668 C754.25,124.676 753.89,124.644 753.53,124.535 L725.69,115.981 C723.87,115.422 722.84,113.486 723.41,111.657 L730.84,87.443 C730.95,87.083 731.14,86.762 731.33,86.479 C731.69,86.469 732.04,86.505 732.4,86.614 L760.24,95.167" id="Fill-95" fill="#414042"></path>
            <path d="M686.58,103.967 C684.77,103.407 683.73,101.469 684.3,99.642 L691.74,75.428 C691.84,75.067 692.03,74.749 692.23,74.464 C692.58,74.456 692.93,74.485 693.3,74.6 L721.12,83.149 C722.95,83.71 723.98,85.643 723.42,87.462 L715.97,111.693 C715.87,112.048 715.69,112.36 715.49,112.653 C715.13,112.658 714.76,112.625 714.41,112.517 L686.58,103.967" id="Fill-96" fill="#414042"></path>
            <path d="M647.48,91.951 C645.64,91.388 644.63,89.457 645.19,87.626 L652.63,63.413 C652.74,63.053 652.91,62.729 653.11,62.445 C653.47,62.436 653.83,62.473 654.18,62.583 L682,71.129 C683.83,71.693 684.86,73.622 684.3,75.44 L676.85,99.672 C676.74,100.029 676.57,100.341 676.37,100.635 C676.01,100.64 675.66,100.609 675.3,100.5 L647.48,91.951" id="Fill-97" fill="#414042"></path>
            <path d="M608.36,79.934 C606.54,79.371 605.52,77.441 606.08,75.609 L613.52,51.396 C613.63,51.035 613.8,50.712 614,50.429 C614.35,50.42 614.71,50.455 615.07,50.565 L642.89,59.112 C644.72,59.677 645.75,61.604 645.19,63.425 L637.75,87.657 C637.63,88.014 637.46,88.325 637.25,88.617 C636.9,88.622 636.54,88.593 636.19,88.479 L608.36,79.934" id="Fill-98" fill="#414042"></path>
            <path d="M569.24,67.917 C567.42,67.356 566.39,65.42 566.96,63.589 L574.39,39.375 C574.51,39.018 574.69,38.695 574.89,38.41 C575.23,38.402 575.59,38.437 575.95,38.547 L603.79,47.1 C605.6,47.656 606.64,49.588 606.08,51.408 L598.63,75.641 C598.53,75.997 598.34,76.305 598.14,76.6 C597.79,76.606 597.43,76.576 597.08,76.467 L569.24,67.917" id="Fill-99" fill="#414042"></path>
            <path d="M564.68,35.084 C566.5,35.643 567.52,37.569 566.95,39.39 L559.51,63.623 C559.41,63.976 559.24,64.292 559.04,64.586 C558.68,64.589 558.31,64.556 557.97,64.449 L530.14,55.9 C528.32,55.341 527.28,53.406 527.85,51.575 L535.29,27.361 C535.4,27.003 535.56,26.676 535.77,26.395 C536.12,26.383 536.48,26.421 536.84,26.529 L564.68,35.084" id="Fill-100" fill="#414042"></path>
            <path d="M525.55,23.062 C527.39,23.626 528.4,25.552 527.84,27.373 L520.4,51.606 C520.29,51.961 520.12,52.272 519.91,52.565 C519.56,52.571 519.21,52.544 518.84,52.431 L491.012,43.878 C489.187,43.321 488.162,41.383 488.724,39.554 L496.163,15.34 C496.276,14.981 496.443,14.657 496.653,14.375 C497.003,14.363 497.38,14.406 497.729,14.513 L525.55,23.062" id="Fill-101" fill="#414042"></path>
            <path d="M486.447,11.046 C488.276,11.611 489.301,13.537 488.742,15.359 L481.292,39.589 C481.182,39.945 481.007,40.256 480.811,40.55 C480.452,40.555 480.086,40.523 479.736,40.416 L451.905,31.864 C450.083,31.304 449.065,29.372 449.631,27.542 L457.07,3.328 C457.181,2.97 457.351,2.647 457.55,2.36 C457.895,2.351 458.26,2.387 458.604,2.493 L486.447,11.046" id="Fill-102" fill="#414042"></path>
            <path d="M415.02,0.854 L410.511,15.525 C409.951,17.355 410.968,19.289 412.796,19.846 L440.613,28.395 C440.975,28.505 441.335,28.534 441.691,28.533 C441.897,28.241 442.059,27.925 442.167,27.57 L449.614,3.337 C449.879,2.479 449.768,1.605 449.41,0.854 L415.02,0.854" id="Fill-103" fill="#414042"></path>
            <path d="M350.973,0.854 L401.776,16.462 C402.137,16.573 402.49,16.603 402.846,16.597 C403.055,16.307 403.233,15.996 403.341,15.641 L407.887,0.854 L350.973,0.854" id="Fill-104" fill="#414042"></path>
            <path d="M907.99,142.277 C907.69,141.177 906.9,140.229 905.72,139.864 L848.9,122.407 C848.57,122.304 848.2,122.27 847.84,122.274 C847.65,122.562 847.47,122.881 847.36,123.237 L839.91,147.453 C839.36,149.284 840.38,151.221 842.2,151.778 L899.02,169.233 C899.37,169.344 899.74,169.377 900.09,169.368 C900.29,169.074 900.46,168.765 900.57,168.41 L907.99,144.263 L907.99,142.277" id="Fill-105" fill="#414042"></path>
            <path d="M791.64,174.803 L787.95,173.668 L777.2,170.369 C775.37,169.806 774.35,167.879 774.91,166.049 L782.35,141.825 C782.46,141.473 782.63,141.156 782.84,140.866 C783.19,140.859 783.55,140.889 783.91,141 L811.73,149.549 C813.56,150.111 814.58,152.047 814.02,153.872 L806.58,178.095 C806.47,178.449 806.3,178.771 806.11,179.045 C805.74,179.062 805.38,179.025 805.03,178.917 L791.64,174.803" id="Fill-106" fill="#414042"></path>
            <path d="M738.08,158.349 C736.27,157.789 735.23,155.858 735.79,154.025 L743.23,129.804 C743.34,129.451 743.52,129.139 743.72,128.847 C744.09,128.845 744.44,128.875 744.8,128.983 L772.62,137.533 C774.45,138.095 775.48,140.034 774.92,141.86 L767.47,166.081 C767.37,166.434 767.2,166.754 766.99,167.028 C766.63,167.048 766.27,167.01 765.91,166.898 L738.08,158.349" id="Fill-107" fill="#414042"></path>
            <path d="M733.51,125.517 C735.33,126.075 736.36,128.016 735.8,129.842 L728.36,154.063 C728.25,154.416 728.07,154.733 727.87,155.01 C727.52,155.028 727.16,154.992 726.8,154.883 L698.97,146.332 C697.15,145.773 696.12,143.842 696.68,142.013 L704.12,117.789 C704.23,117.436 704.41,117.125 704.61,116.828 C704.96,116.821 705.32,116.856 705.68,116.965 L733.51,125.517" id="Fill-108" fill="#414042"></path>
            <path d="M694.39,113.497 C696.21,114.058 697.24,115.996 696.68,117.823 L689.24,142.045 C689.13,142.395 688.96,142.72 688.76,142.991 C688.41,143.013 688.05,142.975 687.68,142.863 L659.85,134.315 C658.03,133.755 657.01,131.825 657.57,129.998 L665.02,105.773 C665.13,105.423 665.31,105.109 665.5,104.813 C665.85,104.808 666.21,104.839 666.56,104.948 L694.39,113.497" id="Fill-109" fill="#414042"></path>
            <path d="M849.53,231.154 C847.71,230.594 846.69,228.66 847.25,226.839 L854.69,202.623 C854.8,202.258 854.97,201.942 855.18,201.649 C855.53,201.647 855.89,201.683 856.26,201.795 L884.07,210.34 C885.91,210.906 886.92,212.834 886.36,214.66 L878.92,238.884 C878.81,239.239 878.63,239.56 878.44,239.842 C878.09,239.849 877.72,239.813 877.37,239.704 L849.53,231.154" id="Fill-110" fill="#414042"></path>
            <path d="M810.43,219.137 C808.6,218.576 807.57,216.641 808.13,214.82 L815.57,190.601 C815.68,190.238 815.86,189.926 816.07,189.633 C816.42,189.633 816.78,189.664 817.13,189.774 L844.96,198.324 C846.79,198.886 847.81,200.818 847.25,202.643 L839.8,226.866 C839.7,227.222 839.52,227.542 839.33,227.827 C838.97,227.83 838.61,227.796 838.26,227.687 L810.43,219.137" id="Fill-111" fill="#414042"></path>
            <path d="M783.83,179.544 L805.83,186.305 C807.69,186.873 808.69,188.798 808.13,190.625 L800.69,214.849 C800.58,215.205 800.42,215.529 800.2,215.811 C799.86,215.815 799.49,215.776 799.14,215.668 L771.31,207.115 C769.48,206.557 768.46,204.625 769.02,202.803 L776.46,178.585 C776.58,178.222 776.75,177.911 776.95,177.612 C777.32,177.614 777.66,177.649 778.03,177.76 L783.83,179.544" id="Fill-112" fill="#414042"></path>
            <path d="M732.2,195.1 C730.37,194.54 729.34,192.608 729.91,190.788 L737.35,166.57 C737.46,166.203 737.63,165.89 737.84,165.598 C738.19,165.596 738.54,165.63 738.9,165.74 L766.73,174.287 C768.56,174.849 769.59,176.783 769.02,178.609 L761.58,202.834 C761.48,203.19 761.3,203.508 761.1,203.793 C760.74,203.799 760.38,203.761 760.03,203.651 L732.2,195.1" id="Fill-113" fill="#414042"></path>
            <path d="M492.072,121.325 C490.221,120.754 489.203,118.826 489.763,117.005 L497.202,92.786 C497.315,92.42 497.493,92.11 497.692,91.817 C498.059,91.817 498.402,91.849 498.771,91.962 L526.59,100.511 C528.42,101.072 529.44,103.003 528.88,104.827 L521.44,129.05 C521.33,129.41 521.17,129.732 520.95,130.009 C520.6,130.017 520.25,129.981 519.88,129.868 L492.072,121.325" id="Fill-114" fill="#414042"></path>
            <path d="M452.944,109.304 C451.117,108.743 450.096,106.812 450.654,104.99 L458.094,80.771 C458.206,80.407 458.378,80.094 458.577,79.8 C458.934,79.794 459.302,79.835 459.652,79.941 L487.475,88.494 C489.311,89.056 490.336,90.987 489.774,92.813 L482.334,117.036 C482.226,117.393 482.043,117.713 481.844,117.996 C481.48,117.997 481.131,117.963 480.768,117.852 L452.944,109.304" id="Fill-115" fill="#414042"></path>
            <path d="M531.7,133.5 C529.87,132.94 528.84,131.003 529.4,129.184 L536.84,104.965 C536.95,104.6 537.12,104.286 537.33,103.994 C537.68,103.993 538.05,104.031 538.4,104.137 L727.36,162.192 C729.19,162.757 730.21,164.687 729.65,166.512 L722.21,190.735 C722.1,191.092 721.91,191.41 721.71,191.693 C721.36,191.699 721.01,191.666 720.64,191.551 L531.7,133.5" id="Fill-116" fill="#414042"></path>
            <path d="M655.28,101.483 C657.11,102.042 658.13,103.979 657.57,105.805 L650.12,130.03 C650.02,130.38 649.85,130.701 649.64,130.975 C649.28,130.994 648.93,130.957 648.57,130.847 L620.74,122.294 C618.92,121.737 617.89,119.81 618.46,117.978 L625.9,93.755 C626.01,93.407 626.18,93.089 626.39,92.795 C626.72,92.786 627.11,92.827 627.46,92.933 L655.28,101.483" id="Fill-117" fill="#414042"></path>
            <path d="M616.17,89.464 C618,90.028 619.02,91.962 618.46,93.79 L611.02,118.013 C610.91,118.365 610.73,118.685 610.54,118.959 C610.17,118.978 609.82,118.944 609.47,118.834 L581.63,110.279 C579.81,109.72 578.78,107.791 579.34,105.964 L586.79,81.74 C586.89,81.388 587.07,81.074 587.28,80.779 C587.62,80.772 588,80.811 588.35,80.917 L616.17,89.464" id="Fill-118" fill="#414042"></path>
            <path d="M542.52,98.266 C540.7,97.706 539.67,95.774 540.22,93.942 L547.67,69.721 C547.78,69.369 547.95,69.051 548.16,68.761 C548.51,68.758 548.88,68.789 549.23,68.896 L577.07,77.452 C578.88,78.007 579.89,79.941 579.33,81.768 L571.9,105.992 C571.79,106.344 571.63,106.669 571.42,106.94 C571.06,106.96 570.7,106.922 570.35,106.813 L542.52,98.266" id="Fill-119" fill="#414042"></path>
            <path d="M537.95,65.434 C539.77,65.994 540.79,67.929 540.23,69.754 L532.79,93.976 C532.68,94.328 532.52,94.654 532.31,94.926 C531.95,94.942 531.6,94.907 531.24,94.797 L503.398,86.247 C501.578,85.687 500.556,83.758 501.121,81.928 L508.56,57.705 C508.67,57.355 508.84,57.036 509.05,56.745 C509.39,56.736 509.76,56.773 510.12,56.88 L537.95,65.434" id="Fill-120" fill="#414042"></path>
            <path d="M498.836,53.416 C500.647,53.97 501.687,55.914 501.121,57.738 L493.679,81.961 C493.571,82.313 493.402,82.636 493.188,82.905 C492.837,82.924 492.47,82.886 492.126,82.781 L464.295,74.23 C462.47,73.669 461.442,71.739 462.004,69.91 L469.451,45.687 C469.555,45.336 469.734,45.018 469.926,44.723 C470.289,44.722 470.643,44.753 470.992,44.859 L498.836,53.416" id="Fill-121" fill="#414042"></path>
            <path d="M459.719,41.398 C461.549,41.958 462.559,43.89 461.999,45.719 L454.557,69.942 C454.449,70.295 454.284,70.618 454.083,70.89 C453.732,70.91 453.366,70.871 453.012,70.765 L425.188,62.214 C423.355,61.652 422.327,59.725 422.893,57.895 L430.337,33.67 C430.444,33.32 430.617,33.005 430.813,32.709 C431.178,32.706 431.532,32.739 431.889,32.845 L459.719,41.398" id="Fill-122" fill="#414042"></path>
            <path d="M332.333,33.684 C330.508,33.126 329.482,31.197 330.043,29.366 L337.488,5.145 C337.595,4.791 337.768,4.477 337.975,4.183 C338.319,4.177 338.681,4.21 339.04,4.321 L420.129,29.233 C421.934,29.789 422.976,31.732 422.414,33.556 L414.969,57.779 C414.86,58.129 414.683,58.452 414.489,58.725 C414.129,58.744 413.765,58.705 413.418,58.6 L332.333,33.684" id="Fill-123" fill="#414042"></path>
            <path d="M816.5,182.441 C814.66,181.875 813.64,179.95 814.2,178.121 L821.64,153.895 C821.75,153.545 821.93,153.23 822.13,152.935 C822.48,152.93 822.84,152.964 823.2,153.073 L894.89,175.098 C896.73,175.663 897.75,177.599 897.18,179.424 L889.74,203.648 C889.63,203.998 889.46,204.318 889.26,204.594 C888.91,204.614 888.55,204.578 888.19,204.469 L816.5,182.441" id="Fill-124" fill="#414042"></path>
            <path d="M782.84,140.866 C782.63,141.156 782.46,141.473 782.35,141.825 L774.91,166.049 C774.35,167.879 775.37,169.806 777.2,170.369 L787.95,173.668 L791.64,174.803 L805.03,178.917 C805.38,179.025 805.74,179.062 806.11,179.045 C805.26,180.24 803.73,180.83 802.26,180.381 L790.99,176.918 L788.88,176.269 L787.29,175.782 L785.18,175.133 L774.44,171.831 C772.62,171.273 771.59,169.338 772.15,167.518 L779.59,143.295 C780.04,141.825 781.38,140.885 782.84,140.866" id="Fill-125" fill="#323133"></path>
            <path d="M629.6,302.599 C628.58,305.931 625.05,307.803 621.72,306.784 L496.146,268.375 C492.817,267.356 490.939,263.829 491.959,260.497 L522.02,162.228 C523.04,158.899 526.57,157.024 529.89,158.042 L655.46,196.452 C658.8,197.471 660.67,201.001 659.66,204.33 L629.6,302.599" id="Fill-126" fill="#CFD0D1"></path>
            <path d="M862.98,387.362 L599.45,306.396 C601.65,307.63 603.03,309.906 603.17,312.381 L857.96,390.662 C863.24,392.283 868.74,390.691 872.35,387.011 C869.46,388.138 866.17,388.344 862.98,387.362" id="Fill-127" fill="#C8CACC"></path>
            <path d="M246.739,183.087 L302.661,0.854 L298.649,0.854 L241.726,186.372 C239.404,193.923 243.642,201.917 251.188,204.238 L510.02,283.761 C511.71,281.63 514.48,280.574 517.25,281.14 L256.198,200.938 C248.658,198.62 244.428,190.622 246.739,183.087" id="Fill-128" fill="#C8CACC"></path>
            <path d="M599.45,306.396 C599,306.142 598.52,305.927 598,305.768 L517.93,281.277 C517.7,281.207 517.48,281.187 517.25,281.14 C514.48,280.574 511.71,281.63 510.02,283.761 L603.17,312.381 C603.03,309.906 601.65,307.63 599.45,306.396" id="Fill-129" fill="#919394"></path>
            <path d="M16.036,92.098 L0.737,103.058 L25.023,136.953 C27.438,140.323 32.124,141.098 35.497,138.682 L65.665,117.07 C69.034,114.652 69.81,109.967 67.393,106.597 L43.108,72.701 L16.036,92.098" id="Fill-139" fill="#FFE44D"></path>
            <path d="M43.108,72.701 L67.393,106.597 C69.81,109.967 69.034,114.652 65.665,117.07 L70.407,113.67 C73.782,111.253 74.552,106.567 72.137,103.197 L47.852,69.302 L43.108,72.701" id="Fill-140" fill="#E0C641"></path>
            <path d="M29.769,133.553 L5.485,99.658 L0.737,103.058 L25.511,137.631 C27.204,139.997 30.017,141.077 32.708,140.68 L40.239,135.286 C36.869,137.698 32.184,136.923 29.769,133.553" id="Fill-141" fill="#FFEE8A"></path>
            <polyline id="Fill-142" fill="#D1D1D1" points="172.548 50.211 167.763 49.135 159.736 84.803 164.527 85.882 172.548 50.211"></polyline>
            <polyline id="Fill-143" fill="#FFFFFF" points="135.49 41.875 127.463 77.544 132.252 78.622 140.276 42.954 135.49 41.875"></polyline>
            <polyline id="Fill-144" fill="#EBEBEB" points="167.763 49.135 154.326 46.113 152.487 54.296 154.444 54.738 153.621 58.393 151.661 57.951 149.486 67.628 151.446 68.069 150.728 71.258 148.771 70.818 146.305 81.783 159.736 84.803 167.763 49.135"></polyline>
            <polyline id="Fill-145" fill="#EBEBEB" points="150.246 70.502 150.687 68.547 148.727 68.106 151.185 57.195 153.142 57.635 153.686 55.215 151.729 54.775 153.709 45.974 140.276 42.954 132.252 78.622 145.688 81.643 148.292 70.063 150.246 70.502"></polyline>
            <polyline id="Fill-146" fill="#BDBDBD" points="150.728 71.258 151.446 68.069 149.486 67.628 151.661 57.951 153.621 58.393 154.444 54.738 152.487 54.296 154.326 46.113 153.709 45.974 151.729 54.775 153.686 55.215 153.142 57.635 151.185 57.195 148.727 68.106 150.687 68.547 150.246 70.502 148.292 70.063 145.688 81.643 146.305 81.783 148.771 70.818 150.728 71.258"></polyline>
            <polyline id="Fill-147" fill="#C7B03B" points="171.191 86.894 121.009 75.606 121.354 74.061 171.536 85.349 171.191 86.894"></polyline>
            <path d="M141.999,55.23 L142.97,50.926 L142.373,50.794 C142.117,50.738 141.869,50.896 141.815,51.148 L140.723,55.997 C140.663,56.25 140.822,56.5 141.078,56.557 L145.923,57.648 C146.179,57.706 146.429,57.547 146.488,57.294 L146.609,56.748 L142.359,55.792 C142.103,55.735 141.944,55.483 141.999,55.23" id="Fill-148" fill="#858585"></path>
            <path d="M147.22,51.884 L142.97,50.926 L141.999,55.23 C141.944,55.483 142.103,55.735 142.359,55.792 L146.609,56.748 L147.575,52.443 C147.634,52.191 147.473,51.941 147.22,51.884" id="Fill-149" fill="#A3A3A3"></path>
            <path d="M157.287,58.67 L158.255,54.366 L157.658,54.231 C157.405,54.175 157.158,54.333 157.098,54.584 L156.005,59.437 C155.952,59.689 156.108,59.937 156.361,59.997 L161.211,61.087 C161.467,61.144 161.717,60.987 161.771,60.732 L161.897,60.186 L157.642,59.23 C157.392,59.173 157.233,58.923 157.287,58.67" id="Fill-150" fill="#858585"></path>
            <path d="M162.508,55.323 L158.255,54.366 L157.287,58.67 C157.233,58.923 157.392,59.173 157.642,59.23 L161.897,60.186 L162.864,55.883 C162.923,55.631 162.762,55.379 162.508,55.323" id="Fill-151" fill="#A3A3A3"></path>
            <path d="M156.231,171.779 L175.132,87.78 L168.54,86.299 L149.831,169.474 C148.911,173.566 144.846,176.139 140.755,175.216 L150.728,177.46 C153.389,176.767 155.588,174.651 156.231,171.779" id="Fill-152" fill="#E0C641"></path>
            <path d="M104.948,159.376 L123.658,76.202 L117.895,74.905 L98.998,158.904 C98.354,161.777 99.434,164.63 101.543,166.399 L110.689,168.455 C106.598,167.535 104.025,163.471 104.948,159.376" id="Fill-153" fill="#FFEE8A"></path>
            <path d="M149.831,169.474 L168.54,86.299 L123.658,76.202 L104.948,159.376 C104.025,163.471 106.598,167.535 110.689,168.455 L140.755,175.216 C144.846,176.139 148.911,173.566 149.831,169.474" id="Fill-154" fill="#FFE44D"></path>
            <path d="M308.553,362.491 C308.947,360.937 309.19,359.461 309.308,358.066 C309.366,357.375 309.394,356.704 309.395,356.053 C309.393,358.021 309.142,360.167 308.553,362.491" id="Fill-175" fill="#725B5F"></path>
            <path d="M241.616,421.087 C259.425,421.085 270.249,415.674 270.249,415.674 C270.249,415.674 259.428,421.086 241.616,421.087 M198.545,411.012 C198.396,410.942 198.249,410.874 198.099,410.804 C198.099,410.804 187.821,405.266 185.277,398.618 C185.277,398.618 181.72,390.084 181.722996,372.483 C181.72,390.084 185.277,398.618 185.277,398.618 C186.421,401.609 189.132,404.376 191.768,406.514 C194.99,409.128 198.099,410.804 198.099,410.804 C198.249,410.874 198.396,410.942 198.545,411.012" id="Fill-179" fill="#60464B" fill-rule="nonzero"></path>
            <path d="M442.685,457.359 C445.716,457.358 448.867,457.237 452.131,456.977 C448.864,457.238 445.718,457.359 442.685,457.359 M382.882,436.145 C382.881,436.144 382.881,436.144 382.881,436.144 C367.629,417.76 365.281,394.507 365.28,381.94 C365.281,394.507 367.629,417.76 382.881,436.144 C382.881,436.144 382.881,436.144 382.882,436.145" id="Fill-183" fill="#60464B" fill-rule="nonzero"></path>
            <path d="M466.659,451.689 C467.31,451.196 467.903,450.662 468.416,450.083 C468.416,450.083 469.645,448.775 471.55,445.9 C476.223,438.851 484.96,422.384 489.599,392.711 C489.599,392.711 489.849,391.45 489.849,389.415 C489.849,391.45 489.599,392.711 489.599,392.711 C483.068,434.485 468.416,450.083 468.416,450.083 C467.903,450.662 467.31,451.196 466.659,451.689" id="Fill-187" fill="#725B5F"></path>
        </g>
    </g>
</svg>