<?xml version="1.0" encoding="UTF-8"?>
<svg width="527px" height="815px" viewBox="0 0 527 815" version="1.1" xmlns="http://www.w3.org/2000/svg" xmlns:xlink="http://www.w3.org/1999/xlink">
    <!-- Generator: Sketch 52.2 (67145) - http://www.bohemiancoding.com/sketch -->
    <title>divices</title>
    <desc>Created with Sketch.</desc>
    <defs>
        <polygon id="path-1" points="0.06 0.458 642.66 0.458 642.66 792.411985 0.06 792.411985"></polygon>
        <polygon id="path-3" points="0.06 0.458 642.66 0.458 642.66 792.411985 0.06 792.411985"></polygon>
        <polygon id="path-5" points="0.06 0.458 642.66 0.458 642.66 792.411985 0.06 792.411985"></polygon>
        <polygon id="path-7" points="0.06 0.458 642.66 0.458 642.66 792.411985 0.06 792.411985"></polygon>
    </defs>
    <g id="Page-1" stroke="none" stroke-width="1" fill="none" fill-rule="evenodd">
        <g id="divices" transform="translate(205.500000, 407.500000) scale(-1, 1) translate(-205.500000, -407.500000) translate(-116.000000, 0.000000)">
            <path d="M104.701,199.693 L101.107,195.638 C99.786,194.151 99.194,192.267 99.302,190.426 C83.343,169.555 74.501,143.091 76.199,114.807 C79.96,52.295 133.679,4.669 196.191,8.43 C258.702,12.187 306.33,65.909 302.569,128.418 C298.812,190.931 245.09,238.557 182.578,234.798 C153.93,233.074 128.428,220.836 109.546,202.091 C107.743,201.949 105.993,201.149 104.701,199.693 Z M310.289,128.882 C314.302,62.109 263.428,4.726 196.654,0.711 C129.881,-3.305 72.499,47.569 68.482,114.343 C64.467,181.115 115.341,238.499 182.114,242.515 C248.888,246.529 306.271,195.657 310.289,128.882 Z" id="Fill-130" fill="#FFFFFF" fill-rule="nonzero"></path>
            <path d="M302.569,128.418 C306.33,65.909 258.702,12.187 196.191,8.43 C133.679,4.669 79.96,52.295 76.199,114.807 C74.501,143.091 83.343,169.555 99.302,190.426 C99.409,188.577 100.222,186.765 101.722,185.438 L122.826,166.726 C114.194,153.848 109.546,138.15 110.553,121.48 C112.983,80.99 147.78,50.142 188.271,52.578 C228.76,55.013 259.608,89.808 257.175,130.298 C254.74,170.788 219.942,201.636 179.453,199.203 C162.783,198.199 147.759,191.706 136.004,181.592 L114.902,200.306 C113.374,201.661 111.43,202.239 109.546,202.091 C128.428,220.836 153.93,233.074 182.578,234.798 C245.09,238.557 298.812,190.931 302.569,128.418" id="Fill-131" fill="#DCDCDC"></path>
            <path d="M114.902,200.306 L136.004,181.592 C147.759,191.706 162.783,198.199 179.453,199.203 C219.942,201.636 254.74,170.788 257.175,130.298 C259.608,89.808 228.76,55.013 188.271,52.578 C147.78,50.142 112.983,80.99 110.553,121.48 C109.546,138.15 114.194,153.848 122.826,166.726 L101.722,185.438 C100.222,186.765 99.409,188.577 99.302,190.426 C102.448,194.541 105.869,198.438 109.546,202.091 C111.43,202.239 113.374,201.661 114.902,200.306" id="Fill-132" fill="#C2C2C2"></path>
            <path d="M120.426,196.031 L141.53,177.317 C153.279,187.428 168.31,193.923 184.976,194.926 C225.466,197.359 260.263,166.512 262.696,126.023 C265.132,85.531 234.286,50.735 193.793,48.3 C153.304,45.865 118.506,76.716 116.073,117.203 C115.069,133.875 119.72,149.572 128.35,162.452 L107.245,181.161 C104.257,183.81 103.979,188.376 106.631,191.362 L110.224,195.416 C112.873,198.401 117.438,198.677 120.426,196.031" id="Fill-133" fill="#FFFFFF"></path>
            <path d="M186.228,72.766 C218.19,74.686 242.544,102.157 240.622,134.123 C240.048,143.691 237.171,152.568 232.577,160.274 C241.007,150.87 246.447,138.675 247.262,125.095 C249.187,93.129 224.831,65.656 192.865,63.735 C170.471,62.388 150.292,73.952 139.552,91.982 C150.954,79.255 167.844,71.66 186.228,72.766" id="Fill-134" fill="#4A341E"></path>
            <path d="M185.904,179.493 C204.286,180.596 221.175,172.999 232.577,160.274 C237.171,152.568 240.048,143.691 240.622,134.123 C242.544,102.157 218.19,74.686 186.228,72.766 C167.844,71.66 150.954,79.255 139.552,91.982 C134.96,99.686 132.083,108.564 131.504,118.131 C129.583,150.097 153.938,177.571 185.904,179.493" id="Fill-135" fill="#593F24"></path>
            <path d="M226.278,152.07 L227.956,164.886 C227.956,164.886 235.002,158.008 236.862,154.887 L226.278,152.07" id="Fill-136" fill="#4A341E"></path>
            <path d="M300.992,169.8 C302.896,164.64 300.257,158.915 295.1,157.009 L232.751,136.117 C232.751,136.117 224.897,140.649 226.819,152.189 L288.204,175.694 C293.364,177.6 299.087,174.962 300.992,169.8" id="Fill-137" fill="#84999E"></path>
            <path d="M228.862,149.325 L228.881,149.287 C229.167,148.575 229.974,148.229 230.688,148.514 L290.024,171.103 C291.176,171.558 292.231,171.571 293.235,171.135 C295.66,170.081 297.006,166.777 297.017,166.742 C297.302,166.029 298.104,165.675 298.82,165.954 C299.531,166.232 299.883,167 299.609,167.757 C299.536,167.935 297.851,172.158 294.341,173.684 C292.648,174.419 290.851,174.419 288.99,173.684 L229.646,151.093 C228.951,150.812 228.602,150.028 228.862,149.325" id="Fill-138" fill="#73858A"></path>
            <g id="Group-161" transform="translate(0.000000, 22.000000)">
                <g id="Fill-157-Clipped">
                    <mask id="mask-2" fill="white">
                        <use xlink:href="#path-1"></use>
                    </mask>
                    <g id="path-1"></g>
                    <path d="M349.697,398.204 L84.385,294.727 C84.385,294.727 65.11,284.082 58.06,303.926 L0.04,452.326 L0.04,711.835 L64.709,737.058 L202.15,790.651 C218.656,797.792 223.514,780.908 223.514,780.908 L362.84,422.793 C371.09,403.419 349.697,398.204 349.697,398.204" id="Fill-157" fill="#FFFFFF" mask="url(#mask-2)"></path>
                </g>
                <g id="Fill-158-Clipped">
                    <mask id="mask-4" fill="white">
                        <use xlink:href="#path-3"></use>
                    </mask>
                    <g id="path-1"></g>
                    <path d="M77.236,724.912 C75.78,728.647 71.57,730.48 67.842,729.027 C64.101,727.571 62.254,723.375 63.708,719.638 C65.167,715.908 69.373,714.058 73.107,715.512 C76.837,716.971 78.689,721.18 77.236,724.912" id="Fill-158" fill="#E0E0E0" mask="url(#mask-4)"></path>
                </g>
                <g id="Fill-159-Clipped">
                    <mask id="mask-6" fill="white">
                        <use xlink:href="#path-5"></use>
                    </mask>
                    <g id="path-1"></g>
                    <path d="M79.397,321.619 L0.04,525.086 L0.04,578.431 C98.998,505.225 213.308,453.596 333.02,426.87 L335.167,421.372 L79.397,321.619" id="Fill-159" fill="#414042" mask="url(#mask-6)"></path>
                </g>
                <g id="Fill-160-Clipped">
                    <mask id="mask-8" fill="white">
                        <use xlink:href="#path-7"></use>
                    </mask>
                    <g id="path-1"></g>
                    <path d="M0.04,578.431 L0.04,678.93 L203.731,758.371 L333.02,426.87 C213.308,453.596 98.998,505.225 0.04,578.431" id="Fill-160" fill="#323133" mask="url(#mask-8)"></path>
                </g>
            </g>
            <path d="M526.398,337.359 L483.915,124.368 C481.195,110.738 464.427,112.727 464.427,112.727 L420.39,121.512 L376.352,130.295 C376.352,130.295 360.105,134.89 362.824,148.52 L405.311,361.51 C405.311,361.51 407.68,375.194 423.391,372.06 L513.745,354.038 C529.461,350.902 526.398,337.359 526.398,337.359" id="Fill-162" fill="#FFFFFF"></path>
            <path d="M490.183,191.461 L480.259,141.708 L372.847,163.133 L396.515,281.792 C420.247,244.508 452.406,213.598 490.183,191.461" id="Fill-163" fill="#414042"></path>
            <path d="M396.515,281.792 L409.012,344.426 L516.421,323 L490.183,191.461 C452.406,213.598 420.247,244.508 396.515,281.792" id="Fill-164" fill="#323133"></path>
            <path d="M473.406,347.791 C474.237,351.965 471.527,356.035 467.334,356.871 C463.151,357.704 459.086,354.989 458.252,350.812 C457.418,346.631 460.131,342.563 464.314,341.729 C468.507,340.892 472.572,343.606 473.406,347.791" id="Fill-165" fill="#E0E0E0"></path>
            <polyline id="Fill-166" fill="#BCBEC0" points="442.62 136.001 405.421 143.421 405.056 141.605 442.259 134.186 442.62 136.001"></polyline>
        </g>
    </g>
</svg>